<?xml version="1.0" encoding="UTF-8" standalone="no"?>
<svg
   id="Layer_1"
   data-name="Layer 1"
   viewBox="0 0 122.88 119.91"
   version="1.1"
   sodipodi:docname="favicon.svg"
   inkscape:version="1.1 (c68e22c387, 2021-05-23)"
   xmlns:inkscape="http://www.inkscape.org/namespaces/inkscape"
   xmlns:sodipodi="http://sodipodi.sourceforge.net/DTD/sodipodi-0.dtd"
   xmlns="http://www.w3.org/2000/svg"
   xmlns:svg="http://www.w3.org/2000/svg">
  <sodipodi:namedview
     id="namedview11"
     pagecolor="#ffffff"
     bordercolor="#666666"
     borderopacity="1.0"
     inkscape:pageshadow="2"
     inkscape:pageopacity="0.0"
     inkscape:pagecheckerboard="0"
     showgrid="false"
     inkscape:object-paths="false"
     inkscape:zoom="6.938537"
     inkscape:cx="61.468289"
     inkscape:cy="48.497255"
     inkscape:window-width="1920"
     inkscape:window-height="1017"
     inkscape:window-x="-8"
     inkscape:window-y="-8"
     inkscape:window-maximized="1"
     inkscape:current-layer="Layer_1" />
  <defs
     id="defs4">
    <style
       id="style2">.cls-1{fill-rule:evenodd;}</style>
  </defs>
  <title
     id="title6">auction</title>
  <path
     class="cls-1"
     d="m 95.13,26 v 0 c 3.009341,2.962061 3.067373,7.796556 0.13,10.83 L 93.67,38.42 106.46,51 C 99.688592,65.875916 86.901923,73.984663 74.13,82.11 L 61.67,69.21 C 45.49,85.39 22.812517,91.282318 13.13,117.75 10.096009,120.69014 5.2569749,120.62759 2.3,117.61 v 0 C -0.70675212,114.6484 -0.76919061,109.81834 2.16,106.78 23.543859,94.82655 34.64,74.3 50.88,58.06 L 41.13,47.92 C 49.09339,34.621612 58.752294,23.540435 71.7,16.76 L 82.64,27.5 84.31,25.82 C 87.353669,22.897342 92.18523,22.977719 95.13,26 Z M 75,41.57 72.49,45 c -0.366589,-0.179156 -0.75738,-0.303805 -1.16,-0.37 -0.339991,-0.01699 -0.679955,0.03401 -1,0.15 L 72.58,47 c 1.368395,-0.909552 2.905407,-1.535239 4.52,-1.84 1.296262,-0.08406 2.563198,0.410262 3.46,1.35 0.54502,0.541262 0.950023,1.207114 1.18,1.94 0.227264,0.692583 0.315619,1.423208 0.26,2.15 -0.06274,0.679365 -0.252706,1.340867 -0.56,1.95 -0.283634,0.602258 -0.665517,1.153116 -1.13,1.63 l 2,2 -1.61,1.64 -2,-2 c -0.595862,0.520494 -1.271033,0.942475 -2,1.25 -0.630188,0.286883 -1.30857,0.453086 -2,0.49 -0.618253,0.03687 -1.238102,-0.03764 -1.83,-0.22 -0.62418,-0.21732 -1.213623,-0.52383 -1.75,-0.91 l 2.8,-3.52 c 0.441423,0.342821 0.948575,0.591291 1.49,0.73 0.474341,0.0522 0.954291,-0.0095 1.4,-0.18 L 74,50.69 c -0.958587,0.576018 -1.961799,1.07428 -3,1.49 -1.556681,0.510426 -3.26811,0.0738 -4.39,-1.12 -0.899672,-0.862282 -1.393545,-2.064281 -1.36,-3.31 0.04095,-1.399672 0.634142,-2.726261 1.65,-3.69 l -1.44,-1.44 1.62,-1.62 1.44,1.44 c 0.877352,-0.884316 2.02451,-1.450858 3.26,-1.61 1.113129,-0.126796 2.235372,0.142259 3.17,0.76 z m -5.81,4.26 c -0.194138,0.333788 -0.294345,0.713885 -0.29,1.1 0.0265,0.292871 0.157897,0.566314 0.37,0.77 0.213941,0.219717 0.495862,0.360677 0.8,0.4 0.391735,0.0218 0.781231,-0.07209 1.12,-0.27 z M 78,52.4 c 0.304032,-0.426893 0.471402,-0.935978 0.48,-1.46 0.0068,-0.792854 -0.608563,-1.452137 -1.4,-1.5 -0.559005,0.01655 -1.105232,0.171145 -1.59,0.45 z M 62.17,37.82 c 10.355366,-10.363983 28.068832,-3.029013 28.068832,11.62 0,14.649013 -17.713466,21.983983 -28.068832,11.62 -6.413775,-6.419112 -6.413775,-16.820888 0,-23.24 z m 8.2,-36 v 0 c 2.397495,2.3556341 2.446604,6.203954 0.11,8.62 C 47.146626,25.402412 44.371064,35.105194 34.83,46.1 32.416681,48.439324 28.5684,48.39468 26.21,46 v 0 C 23.812505,43.644366 23.763396,39.796046 26.1,37.38 L 61.75,1.73 c 2.411129,-2.34481345 6.263916,-2.30011755 8.62,0.1 z m 50.68,50.68 v 0 c 2.40012,2.356084 2.44481,6.208871 0.1,8.62 L 85.51,96.79 c -2.416046,2.336604 -6.264366,2.287495 -8.62,-0.11 v 0 c -2.397495,-2.355634 -2.446604,-6.203954 -0.11,-8.62 13.100254,-7.624111 25.59764,-17.358259 35.65,-35.65 2.41113,-2.344813 6.26392,-2.300118 8.62,0.1 z"
     id="path8"
     sodipodi:nodetypes="ssccccccssccccccscccccccccccccccccccccccccccccccccccccccccccsssscsccsscccccsccsscccc" />
  <path
     style="fill:#000000;stroke-width:0.144123"
     d="M 28.82452,47.50894 C 25.86005,46.535823 24.029082,43.643068 24.529288,40.722886 24.899761,38.560077 23.634358,39.934072 43.99918,19.582161 64.358125,-0.76387518 62.996337,0.48747906 65.1613,0.13615931 69.877297,-0.62912994 73.671741,4.5775756 71.518251,8.8591181 70.964308,9.9604588 70.597446,10.282277 67.605375,12.291557 56.853078,19.5121 50.20296,25.73709 43.238008,35.101165 c -4.76709,6.409146 -6.301053,8.421007 -7.521734,9.865086 -1.137366,1.345517 -1.404508,1.5772 -2.409616,2.089778 -1.061962,0.541571 -1.214483,0.578479 -2.518041,0.60932 -0.845886,0.02001 -1.612668,-0.04105 -1.964097,-0.156409 z"
     id="path1746" />
  <path
     style="fill:#000000;stroke-width:0.144123"
     d="m 28.738916,47.493572 c -3.607092,-1.328003 -5.279731,-5.089637 -3.738063,-8.406613 0.425872,-0.916286 1.413536,-1.930236 18.998791,-19.504435 20.2499,-20.23716905 19.039855,-19.121272 21.105735,-19.46359926 2.55231,-0.42293165 5.195082,0.98729256 6.393195,3.41150966 0.64706,1.3092364 0.819469,2.9692405 0.442413,4.2596454 -0.438304,1.5000142 -1.038366,2.2758382 -2.546988,3.2930252 -10.93683,7.374146 -16.56105,12.232288 -22.708091,19.615009 -0.693001,0.832308 -3.155181,4.042639 -5.471512,7.134069 -6.213378,8.292519 -6.806896,8.951097 -8.650927,9.599222 -0.923316,0.324519 -3.019412,0.35859 -3.824553,0.06217 z"
     id="path1785" />
  <path
     style="fill:#ffffff;stroke-width:0.144123"
     d="M 28.896581,47.569519 C 28.223359,47.363454 27.097054,46.723064 26.496713,46.205011 24.551597,44.526507 23.898753,41.576004 24.942302,39.179903 25.32003,38.312599 26.309056,37.295108 43.783723,19.796211 57.949508,5.6107823 62.426151,1.2097556 63.087455,0.81854578 c 2.306376,-1.36439364 5.397208,-0.88871223 7.300295,1.12352082 1.974465,2.0877068 2.307348,4.9941744 0.850122,7.4225899 -0.428905,0.7147545 -0.786977,1.0043895 -3.788495,3.0644195 -9.127999,6.264811 -14.368741,10.816738 -19.955022,17.332241 -0.815551,0.951209 -3.516848,4.431689 -6.002881,7.7344 -6.515886,8.656394 -7.082611,9.287084 -8.928005,9.935688 -0.809747,0.284603 -2.927684,0.364377 -3.666888,0.138114 z"
     id="path1900" />
  <path
     style="fill:#ffffff;stroke-width:0.144123"
     d="m 6.6296396,119.76473 c -2.7236123,-0.41317 -5.2045253,-2.48206 -6.13387647,-5.1152 -0.42656144,-1.20858 -0.52414868,-3.06156 -0.2230785,-4.2358 0.53632933,-2.09179 1.37625457,-3.28329 2.95480247,-4.1916 1.7041548,-0.98059 5.1057892,-3.22988 6.9331559,-4.58446 3.562861,-2.641069 6.251014,-4.971921 9.992466,-8.664299 4.514277,-4.455066 7.731033,-8.081088 15.227498,-17.164883 7.018426,-8.504535 9.689577,-11.58699 14.175218,-16.357915 l 1.355046,-1.441226 -4.803888,-4.97223 c -2.642137,-2.734726 -4.806581,-5.050875 -4.809873,-5.146994 -0.0033,-0.09612 0.554215,-1.068949 1.238906,-2.161839 6.997986,-11.17007 14.58489,-19.458718 23.111829,-25.249541 1.944522,-1.320565 5.772585,-3.616399 6.029968,-3.616399 0.06236,0 0.303861,0.200767 0.536677,0.446149 0.232815,0.245382 2.677887,2.653714 5.433491,5.35185 l 5.010191,4.905701 1.339449,-1.295794 c 1.959369,-1.895513 3.307969,-2.481431 5.718698,-2.48457 4.885256,-0.0064 8.550057,4.684586 7.416581,9.493227 -0.327917,1.391147 -1.012359,2.540118 -2.333256,3.916835 l -1.186992,1.237154 6.407568,6.302593 6.40757,6.302596 -0.73593,1.467914 c -0.91323,1.821564 -2.57377,4.590363 -3.75324,6.258203 -4.294778,6.073081 -9.875658,11.252602 -18.635757,17.295542 -2.245809,1.549216 -8.733462,5.762872 -9.060439,5.884651 -0.08988,0.03347 -2.946934,-2.826708 -6.349023,-6.355956 l -6.185613,-6.416817 -0.371965,0.334739 c -0.204579,0.184107 -0.964731,0.889164 -1.689223,1.566796 -3.303769,3.090075 -7.457052,6.275088 -15.761268,12.086788 -6.360739,4.451558 -9.544822,6.81419 -12.482976,9.262535 -5.707976,4.756416 -10.26275,9.91066 -13.52863,15.30916 -1.239042,2.04815 -3.283289,6.15633 -4.159519,8.35911 -0.604364,1.51933 -0.761357,1.78441 -1.292054,2.18154 -0.963099,0.72072 -2.063139,1.20886 -3.2253035,1.43121 -1.1622605,0.22238 -1.4583346,0.22944 -2.5672099,0.0612 z M 75.37612,65.858944 c 6.902599,-0.781429 12.651522,-5.616687 14.339282,-12.060373 0.832725,-3.179249 0.72641,-6.672568 -0.296108,-9.729526 -1.327913,-3.96998 -4.374928,-7.416803 -8.282893,-9.369716 -4.934734,-2.466017 -10.883463,-2.315877 -15.5025,0.391267 -3.054267,1.790056 -5.742733,4.818951 -7.005244,7.892288 -2.369609,5.768353 -1.467629,12.060195 2.422071,16.895373 2.65792,3.303983 6.719048,5.532646 10.881557,5.971568 1.632569,0.172149 1.995256,0.173109 3.443835,0.0091 z"
     id="path1939" />
  <path
     style="fill:#ffffff;stroke-width:0.144123"
     d="m 79.636577,56.721163 -0.91963,-0.927879 -0.629623,0.433193 c -1.334796,0.918363 -2.157662,1.188557 -3.648001,1.197846 -1.220066,0.0076 -1.459409,-0.03577 -2.197869,-0.39827 -0.519013,-0.254779 -0.828422,-0.497147 -0.827948,-0.648552 7.78e-4,-0.24929 2.186667,-3.084688 2.444269,-3.170555 0.07948,-0.02649 0.505397,0.08686 0.946492,0.251896 0.570039,0.213279 0.966705,0.273724 1.371504,0.208994 0.313233,-0.05009 0.569514,-0.132702 0.569514,-0.183587 0,-0.05089 -0.613936,-0.703901 -1.364301,-1.451147 l -1.364302,-1.358628 -1.549987,0.770475 c -1.273457,0.633015 -1.71787,0.782041 -2.490979,0.835305 -1.236479,0.08519 -2.345584,-0.320242 -3.231519,-1.181272 -0.948546,-0.921881 -1.27868,-1.663086 -1.351392,-3.034095 -0.07167,-1.351312 0.238856,-2.370242 1.04349,-3.424039 l 0.490006,-0.641741 -0.639228,-0.627355 c -0.351576,-0.345045 -0.639228,-0.697631 -0.639228,-0.783524 0,-0.22861 1.200582,-1.369164 1.441226,-1.369164 0.1129,0 0.480006,0.26963 0.815791,0.599178 l 0.610518,0.599178 0.764102,-0.52316 c 1.048101,-0.717607 1.880391,-0.985531 3.078182,-0.990906 0.742981,-0.0033 1.220083,0.08281 1.770832,0.319737 0.41462,0.178365 0.735243,0.376133 0.712494,0.439485 -0.02275,0.06335 -0.550221,0.806217 -1.172162,1.65081 l -1.130802,1.535625 -0.526608,-0.114776 c -0.645049,-0.140591 -1.425082,-0.142593 -1.563661,-0.004 -0.05652,0.05652 0.391341,0.596852 0.995237,1.200747 l 1.097992,1.097993 1.129322,-0.5846 c 2.457059,-1.271912 4.144495,-1.496641 5.63716,-0.750748 1.555617,0.777351 2.474782,2.231124 2.594996,4.104303 0.08431,1.313689 -0.205014,2.336173 -0.996365,3.52123 l -0.597882,0.895336 0.975444,0.982976 0.975443,0.982976 -0.686854,0.734302 c -0.377769,0.403868 -0.760921,0.734303 -0.851448,0.734303 -0.09053,0 -0.578429,-0.417545 -1.084225,-0.927877 z m -1.381706,-4.685747 c 0.120937,-0.233866 0.219885,-0.725269 0.219885,-1.092006 0,-1.290337 -1.155964,-1.87329 -2.555269,-1.288622 l -0.528296,0.220736 1.286563,1.292551 c 0.70761,0.710903 1.302464,1.292552 1.321898,1.292552 0.01943,0 0.134282,-0.191345 0.255219,-0.425211 z M 70.800228,48.04611 c 0.178351,-0.0478 0.324275,-0.162281 0.324275,-0.25441 0,-0.255899 -1.824714,-2.007933 -1.98686,-1.907722 -0.238051,0.147124 -0.34465,1.070094 -0.164262,1.422246 0.363555,0.709732 0.991048,0.963872 1.826847,0.739886 z"
     id="path1978" />
  <path
     style="fill:#ffffff;stroke-width:0.144123"
     d="m 79.434022,98.15114 c -1.696817,-0.542113 -3.015505,-1.721648 -3.801775,-3.4006 -0.361529,-0.771984 -0.40025,-1.008035 -0.40025,-2.440014 0,-1.348365 0.04948,-1.693069 0.331009,-2.305962 0.657124,-1.430575 0.976627,-1.74312 3.040432,-2.974209 11.060151,-6.597541 19.615768,-14.094303 26.540832,-23.256104 1.98384,-2.624596 4.45572,-6.358504 6.01087,-9.079724 1.26753,-2.217944 1.75627,-2.785416 2.86934,-3.331574 2.32833,-1.142453 5.09262,-0.65509 6.97797,1.230266 1.84679,1.846784 2.30848,4.315801 1.27321,6.808744 -0.28517,0.686705 -2.29993,2.752624 -18.78138,19.258237 -10.15407,10.168958 -18.753794,18.675476 -19.110497,18.903372 -1.36687,0.873287 -3.327125,1.105981 -4.949761,0.587568 z"
     id="path2017" />
</svg>
